<svg version="1.1" id="Layer_1" xmlns="http://www.w3.org/2000/svg" xmlns:xlink="http://www.w3.org/1999/xlink" x="0px" y="0px"
	 width="100%" viewBox="0 0 300 200" enable-background="new 0 0 300 200" xml:space="preserve">
<path fill="#FFFFFF" opacity="1.000000" stroke="none" 
	d="
M193.000000,201.000000 
	C128.666672,201.000000 64.833351,201.000000 1.000011,201.000000 
	C1.000000,135.666687 1.034225,70.333298 0.903361,5.000240 
	C0.896501,1.575633 1.575849,0.900212 5.000070,0.904388 
	C102.333244,1.023106 199.666626,1.023100 296.999786,0.904407 
	C300.423737,0.900232 301.103760,1.575187 301.096710,5.000116 
	C300.965057,68.999840 300.965088,132.999985 301.096710,196.999695 
	C301.103729,200.424194 300.426575,201.115295 296.999664,201.099136 
	C262.500397,200.936295 228.000046,201.000000 193.000000,201.000000 
z"/>
<path fill="#000000" opacity="1.000000" stroke="none" 
	d="
M272.242157,121.558533 
	C270.173615,121.888908 268.347351,121.992874 266.521118,121.993042 
	C182.981598,122.001060 99.442085,122.000000 15.902570,122.000000 
	C7.982239,122.000000 7.982239,122.000000 8.088249,113.475632 
	C9.148446,111.950157 10.472309,111.724068 11.804594,111.722298 
	C14.511246,111.718704 15.647382,110.367882 15.746950,107.737022 
	C15.808010,106.123634 15.778275,104.044403 17.809261,103.660522 
	C19.977861,103.250626 20.888460,105.252510 21.851372,106.770355 
	C23.382721,109.184212 24.822029,111.614609 28.207748,111.634575 
	C30.488041,111.648018 32.152374,111.128143 30.426397,108.572266 
	C27.975868,104.943428 28.532349,101.739159 30.358025,97.923683 
	C34.104195,90.094597 29.788912,83.752090 21.008131,83.317513 
	C16.909445,83.114647 12.719296,84.110466 8.441594,82.226715 
	C8.089457,81.194595 7.747198,80.222168 8.968313,80.082703 
	C10.118412,79.951332 11.291310,80.002426 12.454178,80.002449 
	C89.660751,80.003670 166.867325,80.007858 244.536865,80.089218 
	C246.784698,82.075516 246.471695,84.484299 246.498032,86.773766 
	C246.574341,93.409401 246.440552,100.046959 246.574341,106.681625 
	C246.613312,108.613937 246.436996,111.015472 249.311829,111.132286 
	C252.550766,111.263893 252.388275,108.676910 252.429718,106.566261 
	C252.556778,100.097450 252.441696,93.625992 252.493790,87.155930 
	C252.511032,85.013695 252.307648,82.821533 253.713745,80.500664 
	C255.069717,80.115097 256.139282,80.063560 257.604370,80.089333 
	C259.784729,82.075508 259.471771,84.484283 259.498047,86.773758 
	C259.574310,93.409401 259.440460,100.046959 259.574310,106.681633 
	C259.613281,108.613930 259.437012,111.015488 262.311829,111.132294 
	C265.550781,111.263908 265.388245,108.676872 265.429718,106.566261 
	C265.556793,100.097443 265.441803,93.625984 265.493805,87.155914 
	C265.511017,85.013672 265.307648,82.821510 266.713745,80.500656 
	C275.407776,80.111092 283.822174,80.234344 292.219971,79.917976 
	C295.932709,79.778107 297.756653,80.605408 297.030121,84.634361 
	C296.828369,85.753242 296.992157,86.938049 296.910797,88.546219 
	C296.107391,89.770081 295.162384,90.211311 294.158386,90.160728 
	C290.406677,89.971718 288.297974,91.703018 287.368835,95.315849 
	C286.927673,97.031242 286.321289,99.181442 284.129395,99.284081 
	C281.871155,99.389816 281.437195,97.156990 280.663483,95.553108 
	C280.086487,94.357033 279.748444,93.035645 278.938293,91.963409 
	C277.513550,90.077812 275.366791,89.826111 273.536682,90.634857 
	C271.194580,91.669861 272.826416,93.546082 273.462067,94.867882 
	C275.482605,99.069412 277.168671,103.415207 279.148315,107.633278 
	C280.730927,111.005409 280.236237,114.044258 276.493958,115.421150 
	C273.529785,116.511772 273.485474,119.114891 272.242157,121.558533 
z"/>
<path fill="#1C1C1C" opacity="1.000000" stroke="none" 
	d="
M8.089545,82.441650 
	C12.643661,81.984612 17.122698,81.964684 21.601171,82.005882 
	C30.814140,82.090614 36.225704,90.451111 31.578564,98.408318 
	C29.089537,102.670219 29.641407,105.537132 32.315174,108.962975 
	C34.079861,111.224037 34.578976,112.818115 30.452988,113.125336 
	C25.622066,113.485039 22.590321,111.872429 20.709545,107.499474 
	C20.181606,106.271965 19.845087,104.130119 17.935293,104.589966 
	C16.307825,104.981827 16.925808,106.900864 17.052479,108.071716 
	C17.850401,115.447121 12.289886,112.310982 8.609424,113.015915 
	C8.114646,102.984375 8.064428,92.945404 8.089545,82.441650 
z"/>
<path fill="#FF0000" opacity="1.000000" stroke="none" 
	d="
M272.444550,121.908272 
	C272.063629,118.422462 270.885925,114.648941 276.480621,113.969070 
	C280.111908,113.527779 279.209717,110.697823 278.062561,108.193855 
	C275.231842,102.014992 272.521149,95.781136 269.866089,89.803246 
	C279.576874,85.776054 281.274017,92.764610 283.803345,100.327934 
	C286.703796,94.254593 287.152802,86.390129 296.394775,88.999832 
	C296.883301,90.391808 296.933197,91.783783 296.908264,93.588112 
	C294.089539,101.247719 291.173676,108.423851 287.652100,115.333015 
	C286.303131,117.979599 284.885834,120.650368 281.330017,121.676819 
	C278.296692,121.883354 275.592987,121.933273 272.444550,121.908272 
z"/>
<path fill="#FF0000" opacity="1.000000" stroke="none" 
	d="
M266.555206,80.091736 
	C267.000000,89.825706 266.765991,99.493027 267.106842,109.140045 
	C267.257690,113.409370 264.989929,112.939522 262.211823,113.069931 
	C259.143066,113.213982 257.816620,112.562065 257.913086,109.058060 
	C258.169556,99.739136 257.999969,90.408478 257.999847,80.624573 
	C260.703308,80.116707 263.406799,80.066765 266.555206,80.091736 
z"/>
<path fill="#FF0000" opacity="1.000000" stroke="none" 
	d="
M253.555206,80.091736 
	C254.000000,89.825699 253.766022,99.493011 254.106873,109.140022 
	C254.257721,113.409317 251.989929,112.939529 249.211807,113.069954 
	C246.143005,113.214020 244.816635,112.561958 244.913071,109.058037 
	C245.169540,99.739113 244.999969,90.408470 244.999847,80.624565 
	C247.703323,80.116699 250.406784,80.066765 253.555206,80.091736 
z"/>
<path fill="#000000" opacity="1.000000" stroke="none" 
	d="
M281.462891,121.910774 
	C287.631287,116.294914 289.421783,108.001343 292.919342,100.698387 
	C293.958649,98.528320 294.668579,96.209114 296.520111,94.149506 
	C296.888855,102.412231 296.883392,110.825134 297.042267,119.234940 
	C297.082275,121.355721 296.529785,122.142181 294.299835,122.048195 
	C290.181488,121.874626 286.050873,121.991966 281.462891,121.910774 
z"/>
<path fill="#FF0000" opacity="1.000000" stroke="none" 
	d="
M197.973083,105.906029 
	C193.766678,101.893913 195.119064,106.177406 195.064255,107.631111 
	C194.951965,110.609352 195.756958,113.423576 190.750885,113.188530 
	C186.785110,113.002335 185.753311,111.959106 185.914017,108.133850 
	C186.213547,101.004883 186.273941,93.839783 185.895264,86.718361 
	C185.675018,82.576523 187.194473,81.604271 190.922058,81.941795 
	C194.051956,82.225197 197.227966,82.010918 200.383469,81.998169 
	C209.961288,81.959480 213.325302,91.561203 209.979706,97.443008 
	C207.249008,102.243828 207.184357,105.922638 210.899033,109.896774 
	C211.378616,110.409889 212.320953,111.414886 211.671295,112.550705 
	C202.526901,113.843178 202.301758,113.739700 197.973083,105.906029 
z"/>
<path fill="#1C1C1C" opacity="1.000000" stroke="none" 
	d="
M136.006683,98.985077 
	C137.540955,94.908485 139.036682,91.225777 140.274033,87.458206 
	C141.525070,83.648903 143.362946,81.668282 147.982452,81.798225 
	C152.401978,81.922554 152.920151,84.513130 154.053696,87.513336 
	C156.859070,94.938522 159.787964,102.322594 162.904617,109.621819 
	C164.126434,112.483353 163.275360,113.226288 160.553009,112.996956 
	C157.475510,112.737717 154.074646,114.148582 152.385513,109.485428 
	C151.311371,106.519989 143.117569,107.513290 141.310150,110.487175 
	C140.026794,112.598770 133.547607,114.052582 131.826477,112.599442 
	C130.627274,111.586983 131.352249,110.539131 131.786850,109.472847 
	C133.160400,106.102966 134.501266,102.719780 136.006683,98.985077 
z"/>
<path fill="#FF0000" opacity="1.000000" stroke="none" 
	d="
M224.343872,89.000290 
	C228.953613,88.697533 233.112595,89.880829 237.307312,89.027992 
	C239.917419,88.497330 241.193024,89.383949 241.066528,92.419441 
	C240.831573,98.057472 240.877930,103.716042 241.052353,109.358482 
	C241.135895,112.060883 240.399231,113.706497 237.536972,112.945816 
	C233.474808,111.866234 229.510712,113.041397 225.504227,113.007103 
	C219.531357,112.955971 214.492249,108.941444 214.003937,103.791344 
	C213.180359,95.105560 216.428818,90.254395 224.343872,89.000290 
z"/>
<path fill="#1C1C1C" opacity="1.000000" stroke="none" 
	d="
M60.578053,105.490570 
	C56.877506,112.071365 50.261013,114.731544 43.512756,112.687355 
	C37.742100,110.939301 34.545799,106.060402 35.004997,99.700943 
	C35.394905,94.301155 39.750347,89.682281 45.078011,89.018669 
	C52.567421,88.085793 58.544495,90.841202 60.527340,96.140755 
	C62.318428,100.927788 60.994942,102.965012 56.040585,102.995354 
	C52.310692,103.018204 48.580555,102.999870 44.217430,102.999870 
	C46.297478,106.496605 48.387150,106.193764 50.924942,105.077835 
	C54.109520,103.677505 57.423500,102.935684 60.578053,105.490570 
z"/>
<path fill="#1C1C1C" opacity="1.000000" stroke="none" 
	d="
M69.858749,112.991295 
	C64.898041,113.804245 63.596352,111.811050 63.915699,107.469284 
	C64.281044,102.502159 64.094055,97.485344 63.966232,92.494759 
	C63.900517,89.929085 64.878120,88.500214 67.418045,89.056984 
	C71.539841,89.960526 75.587807,88.883774 79.664719,89.011467 
	C84.813499,89.172737 87.793106,91.957504 87.967850,96.965408 
	C88.112877,101.121910 87.820007,105.297173 88.046509,109.446358 
	C88.267639,113.497169 85.618202,112.886414 83.121605,113.035561 
	C80.257988,113.206642 78.714592,112.419846 78.957405,109.184113 
	C79.168556,106.370171 79.029984,103.527206 78.986389,100.697990 
	C78.961624,99.091057 79.350578,97.227562 76.792946,97.031624 
	C74.379272,96.846718 73.358818,98.381775 73.175179,100.276634 
	C72.887321,103.246971 73.015259,106.259453 73.005356,109.254211 
	C72.999039,111.164780 73.056664,113.071892 69.858749,112.991295 
z"/>
<path fill="#1C1C1C" opacity="1.000000" stroke="none" 
	d="
M97.895119,111.224472 
	C95.775139,107.875671 94.830681,104.603859 94.964981,100.983704 
	C95.046341,98.790367 95.720978,96.325546 92.137131,95.687164 
	C90.354279,95.369598 91.189781,93.482765 91.872719,92.371033 
	C94.258698,88.487015 97.701500,85.517365 101.146355,82.689842 
	C103.222015,80.986145 104.104256,82.880814 103.961929,84.841171 
	C103.756203,87.675026 104.513260,89.263962 107.757477,89.089783 
	C110.279564,88.954361 109.923843,91.042503 109.994637,92.673264 
	C110.074692,94.517189 109.771690,96.149017 107.410255,95.963509 
	C104.281448,95.717735 103.875557,97.516800 103.973206,100.016289 
	C104.067375,102.427025 103.866280,104.872459 107.306007,104.997917 
	C111.270126,105.142502 109.741722,108.188568 109.954071,110.212090 
	C110.236549,112.903854 108.336365,113.036858 106.358360,113.005150 
	C103.547058,112.960075 100.656532,113.394508 97.895119,111.224472 
z"/>
<path fill="#1C1C1C" opacity="1.000000" stroke="none" 
	d="
M112.009621,101.898911 
	C111.490356,97.961365 112.974991,96.612160 116.464348,96.957420 
	C118.766365,97.185188 121.114395,97.098312 123.432434,96.975311 
	C126.255371,96.825508 128.077560,97.144005 128.118835,100.846054 
	C128.162094,104.726105 126.332222,105.223755 123.238770,105.033104 
	C120.592056,104.869980 117.927025,104.961761 115.271118,105.004692 
	C113.397736,105.034973 111.936661,104.666412 112.009621,101.898911 
z"/>
<path fill="#FF0000" opacity="1.000000" stroke="none" 
	d="
M164.089340,103.784790 
	C163.011032,98.117310 165.134460,96.116577 170.323669,96.958969 
	C171.945923,97.222321 173.655045,97.104614 175.310211,96.977081 
	C178.253204,96.750313 180.184982,96.874847 180.166229,100.958260 
	C180.148117,104.904770 178.460205,105.364227 175.396210,105.006531 
	C171.662598,104.570671 167.809891,105.880547 164.089340,103.784790 
z"/>
<path fill="#000000" opacity="1.000000" stroke="none" 
	d="
M22.747620,95.175781 
	C20.498104,95.933784 18.167631,97.197845 17.138510,94.193207 
	C16.739433,93.028046 16.538465,91.315514 17.781902,90.483711 
	C19.059879,89.628838 20.661226,89.748901 22.014790,90.684998 
	C23.579842,91.767357 24.318953,93.085480 22.747620,95.175781 
z"/>
<path fill="#000000" opacity="1.000000" stroke="none" 
	d="
M199.326630,90.161011 
	C201.219177,91.580582 202.765686,92.816383 200.967529,95.039177 
	C199.535782,96.809021 197.616776,96.122871 196.090469,95.787369 
	C194.134476,95.357414 195.098938,93.344292 195.055450,92.039421 
	C194.950012,88.876900 197.440704,90.351463 199.326630,90.161011 
z"/>
<path fill="#000000" opacity="1.000000" stroke="none" 
	d="
M148.965698,100.713150 
	C142.271072,100.974747 146.252838,97.713379 146.561218,95.134293 
	C148.957977,96.608070 149.071899,98.583817 148.965698,100.713150 
z"/>
<path fill="#000000" opacity="1.000000" stroke="none" 
	d="
M223.744568,98.775131 
	C224.675751,98.005035 225.328278,97.127747 225.975052,97.131966 
	C228.102386,97.145866 230.536758,96.061699 232.033249,98.883728 
	C232.916214,100.548798 232.953201,102.080025 231.836792,103.277985 
	C230.185333,105.050072 227.795273,105.680458 225.598587,104.715050 
	C223.285583,103.698517 222.213623,101.694901 223.744568,98.775131 
z"/>
<path fill="#000000" opacity="1.000000" stroke="none" 
	d="
M46.074768,97.718422 
	C47.418774,94.590935 49.308514,96.316422 51.157364,97.045952 
	C49.678650,98.324989 47.993126,97.926819 46.074768,97.718422 
z"/>
</svg>