<svg id="visual" viewBox="0 0 960 540" width="960" height="540" xmlns="http://www.w3.org/2000/svg" xmlnsXlink="http://www.w3.org/1999/xlink" version="1.1"><rect x="0" y="0" width="960" height="540" fill="#F7F7F7"></rect><defs><linearGradient id="grad1_0" x1="43.8%" y1="0%" x2="100%" y2="100%"><stop offset="14.444444444444446%" stopColor="#f7f7f7" stopOpacity="1"></stop><stop offset="85.55555555555554%" stopColor="#f7f7f7" stopOpacity="1"></stop></linearGradient></defs><defs><linearGradient id="grad2_0" x1="0%" y1="0%" x2="56.3%" y2="100%"><stop offset="14.444444444444446%" stopColor="#f7f7f7" stopOpacity="1"></stop><stop offset="85.55555555555554%" stopColor="#f7f7f7" stopOpacity="1"></stop></linearGradient></defs><g transform="translate(960, 0)"><path d="M0 216C-16.8 212.8 -33.6 209.7 -45.2 197.9C-56.8 186.1 -63.1 165.7 -77.7 161.3C-92.2 156.8 -114.9 168.4 -133.4 167.3C-151.9 166.2 -166.3 152.5 -168.9 134.7C-171.5 116.8 -162.3 94.8 -165.8 79.8C-169.3 64.8 -185.5 56.9 -196 44.7C-206.4 32.6 -211.2 16.3 -216 0L0 0Z" fill="#FD5746"></path></g><g transform="translate(0, 540)"><path d="M0 -216C16.6 -214.8 33.1 -213.6 46.7 -204.7C60.3 -195.8 71 -179.2 79.8 -165.8C88.7 -152.3 95.6 -142.1 110.4 -138.4C125.1 -134.7 147.5 -137.6 165 -131.6C182.4 -125.5 194.8 -110.7 194.6 -93.7C194.5 -76.8 181.8 -57.8 183.3 -41.8C184.8 -25.9 200.4 -12.9 216 0L0 0Z" fill="#FD5746"></path></g></svg>