<svg id="visual" viewBox="0 0 960 400" width="960" height="400" xmlns="http://www.w3.org/2000/svg" xmlnsXlink="http://www.w3.org/1999/xlink" version="1.1"><rect x="0" y="0" width="960" height="400" fill="#F7F7F7"></rect><path d="M0 113L22.8 104.8C45.7 96.7 91.3 80.3 137 76.3C182.7 72.3 228.3 80.7 274 87C319.7 93.3 365.3 97.7 411.2 103.2C457 108.7 503 115.3 548.8 121C594.7 126.7 640.3 131.3 686 135.7C731.7 140 777.3 144 823 132.8C868.7 121.7 914.3 95.3 937.2 82.2L960 69L960 0L937.2 0C914.3 0 868.7 0 823 0C777.3 0 731.7 0 686 0C640.3 0 594.7 0 548.8 0C503 0 457 0 411.2 0C365.3 0 319.7 0 274 0C228.3 0 182.7 0 137 0C91.3 0 45.7 0 22.8 0L0 0Z" fill="#F85E62" strokeLinecap="round" strokeLinejoin="miter"></path></svg>